<svg width="22727" height="2941" viewBox="0 0 22727 2941" fill="none" xmlns="http://www.w3.org/2000/svg">
<path d="M1218.31 52.2125H1624.12V458.024H1218.31V52.2125Z" fill="url(#paint0_linear_1_99)"/>
<path d="M812.497 458.024H1218.31V863.835H812.497V458.024Z" fill="url(#paint1_linear_1_99)"/>
<path d="M406.686 863.835H812.497V1269.65H406.686V863.835Z" fill="url(#paint2_linear_1_99)"/>
<path d="M0.875 1269.65H406.686V1675.46H0.875V1269.65Z" fill="url(#paint3_linear_1_99)"/>
<path d="M406.686 1675.46H812.497V2081.27H406.686V1675.46Z" fill="url(#paint4_linear_1_99)"/>
<path d="M812.497 2081.27H1218.31V2487.08H812.497V2081.27Z" fill="url(#paint5_linear_1_99)"/>
<path d="M1218.31 2487.08H1624.12V2892.89H1218.31V2487.08Z" fill="url(#paint6_linear_1_99)"/>
<path d="M2396.37 0L2633.22 46.8868L2060.41 2940.57L1823.55 2893.69L2396.37 0Z" fill="url(#paint7_linear_1_99)"/>
<path d="M12681.5 1477.81L12682.5 1072L13088.3 1073L13087.3 1478.81L12681.5 1477.81Z" fill="url(#paint8_linear_1_99)"/>
<path d="M13085.3 1883.62L13086.3 1477.81L13492.1 1478.81L13491.1 1884.62L13085.3 1883.62Z" fill="url(#paint9_linear_1_99)"/>
<path d="M13490.1 2290.43L13491.1 1884.62L13896.9 1885.62L13895.9 2291.43L13490.1 2290.43Z" fill="url(#paint10_linear_1_99)"/>
<path d="M13896.9 1885.62L13898.9 1480.82L14304.7 1481.82L14303.7 1887.63L13896.9 1885.62Z" fill="url(#paint11_linear_1_99)"/>
<path d="M14304.7 1481.82L14305.7 1076.01L14711.5 1077.01L14710.5 1482.82L14304.7 1481.82Z" fill="url(#paint12_linear_1_99)"/>
<path d="M21509.6 2893.22L21103.8 2893.33L21103.7 2487.52L21509.5 2487.41L21509.6 2893.22Z" fill="url(#paint13_linear_1_99)"/>
<path d="M21915.3 2487.3L21509.5 2487.41L21509.4 2081.6L21915.2 2081.49L21915.3 2487.3Z" fill="url(#paint14_linear_1_99)"/>
<path d="M22321 2081.38L21915.2 2081.49L21915.1 1675.68L22320.9 1675.57L22321 2081.38Z" fill="url(#paint15_linear_1_99)"/>
<path d="M22726.7 1675.45L22320.9 1675.57L22320.8 1269.75L22726.6 1269.64L22726.7 1675.45Z" fill="url(#paint16_linear_1_99)"/>
<path d="M22320.8 1269.75L21915 1269.87L21914.9 864.055L22320.7 863.944L22320.8 1269.75Z" fill="url(#paint17_linear_1_99)"/>
<path d="M21914.9 864.055L21509.1 864.167L21509 458.356L21914.8 458.244L21914.9 864.055Z" fill="url(#paint18_linear_1_99)"/>
<path d="M21509 458.356L21103.2 458.467L21103 52.656L21508.9 52.5444L21509 458.356Z" fill="url(#paint19_linear_1_99)"/>
<path d="M3910.45 2055.3V2284.18H3007.11V689.343H3260.34V2055.3H3910.45Z" fill="white"/>
<path d="M4886.83 2284.18L4881.96 2198.96C4752.1 2272.01 4646.59 2308.53 4565.42 2308.53C4433.94 2308.53 4338.17 2271.2 4278.11 2196.53C4218.05 2120.23 4188.02 1999.3 4188.02 1833.73V1127.62H4438.81V1819.12C4438.81 1986.32 4493.19 2069.91 4601.95 2069.91C4687.98 2069.91 4780.5 2036.64 4879.52 1970.08V1127.62H5130.31V2284.18H4886.83Z" fill="white"/>
<path d="M6070.17 1548.85V1349.19C6032.84 1342.7 5996.31 1339.45 5960.6 1339.45C5859.96 1339.45 5789.35 1368.67 5748.77 1427.11C5709.81 1485.54 5690.33 1578.07 5690.33 1704.68C5690.33 1831.3 5710.62 1925.44 5751.2 1987.13C5793.41 2047.19 5866.45 2077.22 5970.34 2077.22C6074.23 2077.22 6180.55 2062.61 6289.31 2033.39L6325.83 2267.14C6212.21 2299.6 6090.46 2315.83 5960.6 2315.83C5600.24 2315.83 5420.06 2112.93 5420.06 1707.12C5420.06 1497.72 5460.64 1345.13 5541.81 1249.36C5624.59 1151.97 5761.76 1103.27 5953.3 1103.27C6076.67 1103.27 6195.16 1118.69 6308.79 1149.53V1548.85H6070.17Z" fill="white"/>
<path d="M7019.77 2074.78C7065.22 2074.78 7115.54 2064.23 7170.73 2043.13C7225.92 2022.03 7269.75 1998.49 7302.21 1972.52V1802.08C7204.82 1793.96 7125.28 1789.9 7063.6 1789.9C6928.87 1789.9 6861.5 1840.22 6861.5 1940.86C6861.5 2030.14 6914.26 2074.78 7019.77 2074.78ZM6980.81 2310.96C6721.09 2310.96 6591.23 2187.6 6591.23 1940.86C6591.23 1809.38 6632.63 1717.67 6715.41 1665.72C6799.82 1612.16 6915.88 1585.37 7063.6 1585.37C7133.4 1585.37 7212.94 1589.43 7302.21 1597.55C7302.21 1500.15 7288.42 1433.6 7260.82 1397.89C7233.23 1362.18 7185.34 1344.32 7117.16 1344.32C7048.99 1344.32 6969.45 1352.44 6878.55 1368.67C6787.65 1384.9 6717.85 1401.14 6669.15 1417.37L6622.89 1186.06C6793.33 1134.11 6959.71 1108.14 7122.03 1108.14C7284.36 1108.14 7396.36 1143.85 7458.05 1215.27C7521.35 1286.7 7553.01 1407.63 7553.01 1578.07V2072.35L7579.79 2286.62L7329 2310.96L7304.65 2198.96C7168.3 2273.63 7060.35 2310.96 6980.81 2310.96Z" fill="white"/>
<path d="M7864.67 2230.61L7918.24 2009.04C8072.44 2057.74 8195 2082.09 8285.9 2082.09C8376.8 2082.09 8438.49 2073.16 8470.95 2055.3C8503.42 2039.07 8519.65 2009.85 8519.65 1967.65C8519.65 1925.44 8505.04 1895.41 8475.82 1877.56C8446.6 1859.7 8391.41 1841.04 8310.25 1821.56C8149.55 1782.6 8037.54 1739.58 7974.24 1692.51C7910.93 1643.81 7879.28 1565.08 7879.28 1456.33C7879.28 1224.2 8028.62 1108.14 8327.29 1108.14C8455.53 1108.14 8604.06 1129.24 8772.87 1171.45L8726.61 1402.76C8565.91 1357.31 8441.73 1334.58 8354.08 1334.58C8266.42 1334.58 8207.17 1342.7 8176.33 1358.93C8147.11 1373.54 8132.5 1399.51 8132.5 1436.85C8132.5 1474.18 8147.11 1501.78 8176.33 1519.63C8207.17 1535.87 8285.09 1561.03 8410.08 1595.11C8535.07 1629.2 8626.78 1668.97 8685.22 1714.42C8743.66 1758.25 8772.87 1833.73 8772.87 1940.86C8772.87 2185.97 8621.91 2308.53 8319.99 2308.53C8178.77 2308.53 8026.99 2282.56 7864.67 2230.61Z" fill="white"/>
<path d="M9155.15 1256.67C9237.93 1157.65 9365.36 1108.14 9537.42 1108.14C9709.49 1108.14 9836.91 1157.65 9919.7 1256.67C10002.5 1354.06 10043.9 1505.02 10043.9 1709.55C10043.9 1914.08 10002.5 2066.67 9919.7 2167.31C9836.91 2266.33 9709.49 2315.83 9537.42 2315.83C9365.36 2315.83 9237.93 2266.33 9155.15 2167.31C9072.36 2066.67 9030.97 1914.08 9030.97 1709.55C9030.97 1505.02 9072.36 1354.06 9155.15 1256.67ZM9349.94 1429.54C9317.47 1486.36 9301.24 1579.69 9301.24 1709.55C9301.24 1839.41 9318.28 1933.56 9352.37 1992C9386.46 2050.43 9448.14 2079.65 9537.42 2079.65C9626.7 2079.65 9688.38 2050.43 9722.47 1992C9756.56 1933.56 9773.6 1839.41 9773.6 1709.55C9773.6 1579.69 9756.56 1486.36 9722.47 1429.54C9690.01 1372.73 9628.32 1344.32 9537.42 1344.32C9446.52 1344.32 9384.03 1372.73 9349.94 1429.54Z" fill="white"/>
<path d="M10238.7 2284.18V689.343H10618.5C10746.7 689.343 10849.8 699.894 10927.7 720.997C11007.3 742.099 11074.6 781.868 11129.8 840.305C11185 898.742 11224 979.904 11246.7 1083.79C11269.4 1186.06 11280.8 1332.15 11280.8 1522.07C11280.8 1710.36 11257.3 1862.14 11210.2 1977.39C11164.7 2092.64 11095.7 2172.99 11003.2 2218.44C10910.7 2262.27 10780.8 2284.18 10613.6 2284.18H10238.7ZM10925.3 1960.34C10962.6 1918.14 10987.8 1860.51 11000.8 1787.47C11015.4 1712.8 11022.7 1612.16 11022.7 1485.54C11022.7 1357.31 11017 1256.67 11005.6 1183.62C10994.3 1110.58 10969.9 1052.95 10932.6 1010.75C10896.9 966.918 10852.3 939.323 10798.7 927.96C10745.1 914.974 10668.8 908.481 10569.8 908.481H10491.9V2065.04H10564.9C10659.1 2065.04 10732.9 2058.55 10786.5 2045.56C10841.7 2030.95 10888 2002.55 10925.3 1960.34Z" fill="white"/>
<path d="M11482.9 1707.12C11482.9 1510.71 11526.7 1362.18 11614.4 1261.54C11702 1159.27 11823.8 1108.14 11979.6 1108.14C12135.4 1108.14 12255.5 1154.4 12340 1246.93C12426 1337.83 12470.6 1471.75 12473.9 1648.68L12464.1 1828.86H11753.2C11767.8 2004.17 11855.4 2091.83 12016.1 2091.83C12128.1 2091.83 12246.6 2071.54 12371.6 2030.95L12422.7 2242.79C12370.8 2260.64 12303.4 2276.06 12220.6 2289.05C12137.9 2303.66 12069.7 2310.96 12016.1 2310.96C11660.6 2310.96 11482.9 2109.68 11482.9 1707.12ZM11989.3 1334.58C11913 1334.58 11855.4 1357.31 11816.5 1402.76C11779.1 1446.59 11758 1520.44 11753.2 1624.33H12203.6C12203.6 1431.17 12132.2 1334.58 11989.3 1334.58Z" fill="white"/>
<path d="M14905.5 2284.18V689.343H15285.3C15413.6 689.343 15516.6 699.894 15594.6 720.997C15674.1 742.099 15741.5 781.868 15796.7 840.305C15851.8 898.742 15890.8 979.904 15913.5 1083.79C15936.3 1186.06 15947.6 1332.15 15947.6 1522.07C15947.6 1710.36 15924.1 1862.14 15877 1977.39C15831.6 2092.64 15762.6 2172.99 15670 2218.44C15577.5 2262.27 15447.7 2284.18 15280.5 2284.18H14905.5ZM15592.1 1960.34C15629.5 1918.14 15654.6 1860.51 15667.6 1787.47C15682.2 1712.8 15689.5 1612.16 15689.5 1485.54C15689.5 1357.31 15683.8 1256.67 15672.5 1183.62C15661.1 1110.58 15636.8 1052.95 15599.4 1010.75C15563.7 966.918 15519.1 939.323 15465.5 927.96C15411.9 914.974 15335.7 908.481 15236.6 908.481H15158.7V2065.04H15231.8C15325.9 2065.04 15399.8 2058.55 15453.3 2045.56C15508.5 2030.95 15554.8 2002.55 15592.1 1960.34Z" fill="white"/>
<path d="M16256.8 1256.67C16339.6 1157.65 16467.1 1108.14 16639.1 1108.14C16811.2 1108.14 16938.6 1157.65 17021.4 1256.67C17104.2 1354.06 17145.6 1505.02 17145.6 1709.55C17145.6 1914.08 17104.2 2066.67 17021.4 2167.31C16938.6 2266.33 16811.2 2315.83 16639.1 2315.83C16467.1 2315.83 16339.6 2266.33 16256.8 2167.31C16174.1 2066.67 16132.7 1914.08 16132.7 1709.55C16132.7 1505.02 16174.1 1354.06 16256.8 1256.67ZM16451.6 1429.54C16419.2 1486.36 16402.9 1579.69 16402.9 1709.55C16402.9 1839.41 16420 1933.56 16454.1 1992C16488.2 2050.43 16549.8 2079.65 16639.1 2079.65C16728.4 2079.65 16790.1 2050.43 16824.2 1992C16858.3 1933.56 16875.3 1839.41 16875.3 1709.55C16875.3 1579.69 16858.3 1486.36 16824.2 1429.54C16791.7 1372.73 16730 1344.32 16639.1 1344.32C16548.2 1344.32 16485.7 1372.73 16451.6 1429.54Z" fill="white"/>
<path d="M17391.5 1351.63V1127.62H17588.7V850.044L17839.5 825.696V1127.62H18294.8V1351.63H17839.5V1838.6C17839.5 1927.88 17848.4 1991.19 17866.3 2028.52C17884.1 2064.23 17920.7 2082.09 17975.9 2082.09C18071.6 2082.09 18183.6 2066.67 18311.9 2035.82L18353.3 2252.53C18212 2289.86 18086.2 2308.53 17975.9 2308.53C17820 2308.53 17716.1 2273.63 17664.2 2203.83C17613.9 2134.03 17588.7 2012.29 17588.7 1838.6V1351.63H17391.5Z" fill="white"/>
<path d="M18533.4 918.221V689.343H19609.7V918.221H19198.2V2284.18H18944.9V918.221H18533.4Z" fill="white"/>
<path d="M19870.2 2284.18V664.995H20121V1592.68L20281.7 1575.63C20372.6 1458.76 20452.1 1332.15 20520.3 1195.8L20554.4 1127.62H20827.1C20724.8 1343.51 20611.2 1523.69 20486.2 1668.16C20590.1 1815.88 20694.8 1990.37 20800.3 2191.66L20849 2284.18H20564.1C20484.6 2112.12 20393.7 1947.36 20291.4 1789.9L20121 1806.95V2284.18H19870.2Z" fill="white"/>
<defs>
<linearGradient id="paint0_linear_1_99" x1="609.592" y1="507.264" x2="2334.29" y2="2637.77" gradientUnits="userSpaceOnUse">
<stop stop-color="#8A06D7"/>
<stop offset="0.43156" stop-color="#BC0DDE"/>
<stop offset="1" stop-color="#EE387A"/>
</linearGradient>
<linearGradient id="paint1_linear_1_99" x1="609.592" y1="507.264" x2="2334.29" y2="2637.77" gradientUnits="userSpaceOnUse">
<stop stop-color="#8A06D7"/>
<stop offset="0.43156" stop-color="#BC0DDE"/>
<stop offset="1" stop-color="#EE387A"/>
</linearGradient>
<linearGradient id="paint2_linear_1_99" x1="609.592" y1="507.264" x2="2334.29" y2="2637.77" gradientUnits="userSpaceOnUse">
<stop stop-color="#8A06D7"/>
<stop offset="0.43156" stop-color="#BC0DDE"/>
<stop offset="1" stop-color="#EE387A"/>
</linearGradient>
<linearGradient id="paint3_linear_1_99" x1="609.592" y1="507.264" x2="2334.29" y2="2637.77" gradientUnits="userSpaceOnUse">
<stop stop-color="#8A06D7"/>
<stop offset="0.43156" stop-color="#BC0DDE"/>
<stop offset="1" stop-color="#EE387A"/>
</linearGradient>
<linearGradient id="paint4_linear_1_99" x1="609.592" y1="507.264" x2="2334.29" y2="2637.77" gradientUnits="userSpaceOnUse">
<stop stop-color="#8A06D7"/>
<stop offset="0.43156" stop-color="#BC0DDE"/>
<stop offset="1" stop-color="#EE387A"/>
</linearGradient>
<linearGradient id="paint5_linear_1_99" x1="609.592" y1="507.264" x2="2334.29" y2="2637.77" gradientUnits="userSpaceOnUse">
<stop stop-color="#8A06D7"/>
<stop offset="0.43156" stop-color="#BC0DDE"/>
<stop offset="1" stop-color="#EE387A"/>
</linearGradient>
<linearGradient id="paint6_linear_1_99" x1="609.592" y1="507.264" x2="2334.29" y2="2637.77" gradientUnits="userSpaceOnUse">
<stop stop-color="#8A06D7"/>
<stop offset="0.43156" stop-color="#BC0DDE"/>
<stop offset="1" stop-color="#EE387A"/>
</linearGradient>
<linearGradient id="paint7_linear_1_99" x1="609.592" y1="507.264" x2="2334.29" y2="2637.77" gradientUnits="userSpaceOnUse">
<stop stop-color="#8A06D7"/>
<stop offset="0.43156" stop-color="#BC0DDE"/>
<stop offset="1" stop-color="#EE387A"/>
</linearGradient>
<linearGradient id="paint8_linear_1_99" x1="17146.4" y1="101.45" x2="16740.6" y2="2840.68" gradientUnits="userSpaceOnUse">
<stop offset="0.265554" stop-color="#8A06D7"/>
<stop offset="0.580678" stop-color="#BC0DDE"/>
<stop offset="1" stop-color="#EE387A"/>
</linearGradient>
<linearGradient id="paint9_linear_1_99" x1="17146.4" y1="101.45" x2="16740.6" y2="2840.68" gradientUnits="userSpaceOnUse">
<stop offset="0.265554" stop-color="#8A06D7"/>
<stop offset="0.580678" stop-color="#BC0DDE"/>
<stop offset="1" stop-color="#EE387A"/>
</linearGradient>
<linearGradient id="paint10_linear_1_99" x1="17146.4" y1="101.45" x2="16740.6" y2="2840.68" gradientUnits="userSpaceOnUse">
<stop offset="0.265554" stop-color="#8A06D7"/>
<stop offset="0.580678" stop-color="#BC0DDE"/>
<stop offset="1" stop-color="#EE387A"/>
</linearGradient>
<linearGradient id="paint11_linear_1_99" x1="17146.4" y1="101.45" x2="16740.6" y2="2840.68" gradientUnits="userSpaceOnUse">
<stop offset="0.265554" stop-color="#8A06D7"/>
<stop offset="0.580678" stop-color="#BC0DDE"/>
<stop offset="1" stop-color="#EE387A"/>
</linearGradient>
<linearGradient id="paint12_linear_1_99" x1="17146.4" y1="101.45" x2="16740.6" y2="2840.68" gradientUnits="userSpaceOnUse">
<stop offset="0.265554" stop-color="#8A06D7"/>
<stop offset="0.580678" stop-color="#BC0DDE"/>
<stop offset="1" stop-color="#EE387A"/>
</linearGradient>
<linearGradient id="paint13_linear_1_99" x1="17146.4" y1="101.45" x2="16740.6" y2="2840.68" gradientUnits="userSpaceOnUse">
<stop offset="0.265554" stop-color="#8A06D7"/>
<stop offset="0.580678" stop-color="#BC0DDE"/>
<stop offset="1" stop-color="#EE387A"/>
</linearGradient>
<linearGradient id="paint14_linear_1_99" x1="17146.4" y1="101.45" x2="16740.6" y2="2840.68" gradientUnits="userSpaceOnUse">
<stop offset="0.265554" stop-color="#8A06D7"/>
<stop offset="0.580678" stop-color="#BC0DDE"/>
<stop offset="1" stop-color="#EE387A"/>
</linearGradient>
<linearGradient id="paint15_linear_1_99" x1="17146.4" y1="101.45" x2="16740.6" y2="2840.68" gradientUnits="userSpaceOnUse">
<stop offset="0.265554" stop-color="#8A06D7"/>
<stop offset="0.580678" stop-color="#BC0DDE"/>
<stop offset="1" stop-color="#EE387A"/>
</linearGradient>
<linearGradient id="paint16_linear_1_99" x1="17146.4" y1="101.45" x2="16740.6" y2="2840.68" gradientUnits="userSpaceOnUse">
<stop offset="0.265554" stop-color="#8A06D7"/>
<stop offset="0.580678" stop-color="#BC0DDE"/>
<stop offset="1" stop-color="#EE387A"/>
</linearGradient>
<linearGradient id="paint17_linear_1_99" x1="17146.4" y1="101.45" x2="16740.6" y2="2840.68" gradientUnits="userSpaceOnUse">
<stop offset="0.265554" stop-color="#8A06D7"/>
<stop offset="0.580678" stop-color="#BC0DDE"/>
<stop offset="1" stop-color="#EE387A"/>
</linearGradient>
<linearGradient id="paint18_linear_1_99" x1="17146.4" y1="101.45" x2="16740.6" y2="2840.68" gradientUnits="userSpaceOnUse">
<stop offset="0.265554" stop-color="#8A06D7"/>
<stop offset="0.580678" stop-color="#BC0DDE"/>
<stop offset="1" stop-color="#EE387A"/>
</linearGradient>
<linearGradient id="paint19_linear_1_99" x1="17146.4" y1="101.45" x2="16740.6" y2="2840.68" gradientUnits="userSpaceOnUse">
<stop offset="0.265554" stop-color="#8A06D7"/>
<stop offset="0.580678" stop-color="#BC0DDE"/>
<stop offset="1" stop-color="#EE387A"/>
</linearGradient>
</defs>
</svg>
